HIERARCHY
ROOT root
{
	OFFSET	0	13.1	24.9
	CHANNELS 6  Xposition Yposition Zposition Xrotation Yrotation Zrotation
	JOINT spine_1
	{
		OFFSET	0	9.99999	0
		CHANNELS 3  Xrotation Yrotation Zrotation
		JOINT spine_2
		{
			OFFSET	0	112	-10
			CHANNELS 3  Xrotation Yrotation Zrotation
			JOINT spine_3
			{
				OFFSET	0	206.5	19.3
				CHANNELS 3  Xrotation Yrotation Zrotation
				JOINT spine_4
				{
					OFFSET	0	110.4	14.6
					CHANNELS 3  Xrotation Yrotation Zrotation
					JOINT neck_1
					{
						OFFSET	0	71.8	-50.3
						CHANNELS 3  Xrotation Yrotation Zrotation
						JOINT neck_2
						{
							OFFSET	0	86.2	-25.8
							CHANNELS 3  Xrotation Yrotation Zrotation
							JOINT head_ee
							{
								OFFSET	0	179.8	-8.7
								CHANNELS 3  Xrotation Yrotation Zrotation
								End Site
								{
									OFFSET	1	0	0
								}
							}
						}
					}
					JOINT left_clavicle
					{
						OFFSET	-43.2	22.4	-70.8
						CHANNELS 3  Xrotation Yrotation Zrotation
						JOINT left_shoulder
						{
							OFFSET	-93.9	-5.79999	48.7
							CHANNELS 3  Xrotation Yrotation Zrotation
							JOINT left_elbow
							{
								OFFSET	-291.4	-30.8	15.2
								CHANNELS 3  Xrotation Yrotation Zrotation
								JOINT left_lowarm_twist
								{
									OFFSET	-110.7	-3.89999	13.6
									CHANNELS 3  Xrotation Yrotation Zrotation
									JOINT left_hand
									{
										OFFSET	-110.7	-3.89999	13.6
										CHANNELS 3  Xrotation Yrotation Zrotation
										JOINT left_ee
										{
											OFFSET	-80.8	-5.10001	12.1
											CHANNELS 3  Xrotation Yrotation Zrotation
											End Site
											{
												OFFSET	1	0	0
											}
										}
									}
								}
							}
						}
					}
					JOINT right_clavicle
					{
						OFFSET	43.2	22.4	-70.8
						CHANNELS 3  Xrotation Yrotation Zrotation
						JOINT right_shoulder
						{
							OFFSET	93.9	-5.79999	48.7
							CHANNELS 3  Xrotation Yrotation Zrotation
							JOINT right_elbow
							{
								OFFSET	291.4	-30.8	15.2
								CHANNELS 3  Xrotation Yrotation Zrotation
								JOINT right_lowarm_twist
								{
									OFFSET	110.7	-3.89999	13.6
									CHANNELS 3  Xrotation Yrotation Zrotation
									JOINT right_hand
									{
										OFFSET	110.7	-3.89999	13.6
										CHANNELS 3  Xrotation Yrotation Zrotation
										JOINT right_ee
										{
											OFFSET	80.8	-5.10001	12.1
											CHANNELS 3  Xrotation Yrotation Zrotation
											End Site
											{
												OFFSET	1	0	0
											}
										}
									}
								}
							}
						}
					}
				}
			}
		}
	}
	JOINT left_hip
	{
		OFFSET	-82.8	-127.5	0.300001
		CHANNELS 3  Xrotation Yrotation Zrotation
		JOINT left_knee
		{
			OFFSET	-28.2	-396.7	2.2
			CHANNELS 3  Xrotation Yrotation Zrotation
			JOINT left_ankle
			{
				OFFSET	-11.7	-411.3	35.4
				CHANNELS 3  Xrotation Yrotation Zrotation
				JOINT left_toes
				{
					OFFSET	0	-60	-88.6
					CHANNELS 3  Xrotation Yrotation Zrotation
					JOINT left_foot_ee
					{
						OFFSET	-22.5	-16.5	-42.2
						CHANNELS 3  Xrotation Yrotation Zrotation
						End Site
						{
							OFFSET	1	0	0
						}
					}
				}
			}
		}
	}
	JOINT right_hip
	{
		OFFSET	82.8	-127.5	0.300001
		CHANNELS 3  Xrotation Yrotation Zrotation
		JOINT right_knee
		{
			OFFSET	28.2	-396.7	2.2
			CHANNELS 3  Xrotation Yrotation Zrotation
			JOINT right_ankle
			{
				OFFSET	11.7	-411.3	35.4
				CHANNELS 3  Xrotation Yrotation Zrotation
				JOINT right_toes
				{
					OFFSET	0	-60	-88.6
					CHANNELS 3  Xrotation Yrotation Zrotation
					JOINT right_foot_ee
					{
						OFFSET	22.5	-16.5	-42.2
						CHANNELS 3  Xrotation Yrotation Zrotation
						End Site
						{
							OFFSET	1	0	0
						}
					}
				}
			}
		}
	}
}
MOTION
Frames: 13
Frame Time: 0.02
2800.94 716.97 -1473.77 -27.518930367 73.0515499425 23.0425669687 3.47886 0.10171 1.04331 3.47947 0.0351191 1.04766 3.47984 -0.12291 1.04102 3.47833 0.043033 1.04737 -11.8072 13.0568 -2.01608 -12.1708 26.0445 1.83095 -0.0 0.0 -0.0 -2.43614 13.7228 -2.37157 8.26168 -16.6712 64.9115 4.48934 -65.7669 2.90331 -28.0589 -1.77973 3.07805 -2.87198 -0.721021 -19.9267 -0.0 0.0 -0.0 5.9004 13.0237 -10.898 -31.6881 26.087 -65.4112 0.981473 25.9282 -0.225948 -18.5012 1.00538 -2.13116 3.75471 -31.224 -34.0338 0.0 0.0 0.0 -0.193544 0.0301948 12.2599 -19.2993 0.303318 2.93212 42.0354 21.041 -5.23899 1.89042 -0.0 -0.0 -0.0 0.0 -0.0 45.4056 12.5681 -5.07243 -6.52044 -0.213027 -0.977482 -22.9019 11.5815 -3.67154 -21.4929 0.0 0.0 0.0 0.0 0.0 
2729.90348507 718.866 -1482.96913731 -24.7048890869 77.9860404588 20.7243692518 3.29161 -0.036975 1.09433 3.29227 -0.106531 1.08976 3.28997 -0.272822 1.06042 3.28841 -0.101935 1.0902 -8.82023 11.9799 -3.03324 -8.90338 24.5434 -0.171449 -0.0 0.0 -0.0 -2.6134 13.9097 -2.62921 4.27076 -18.761 68.3967 2.92395 -55.368 1.53431 -25.3247 -1.54215 2.82044 -2.61981 0.701681 -17.4427 -0.0 0.0 -0.0 5.93222 13.881 -10.9114 -31.2608 28.4367 -64.6817 1.02047 26.8165 -0.243271 -19.6983 1.09352 -2.25658 3.92611 -30.7886 -35.1546 0.0 0.0 0.0 -1.62144 1.74875 12.3367 -29.6073 0.0589064 4.49301 36.7041 27.2308 -4.91135 5.28798 -0.0 -0.0 -0.0 0.0 -0.0 44.3269 13.009 -4.63678 -21.3543 -0.277085 -3.24634 -19.4662 14.6962 -3.18832 -19.1827 0.0 0.0 0.0 0.0 0.0 
2730.12050089 718.866 -1484.512864 -22.4697220264 76.843022774 18.4343018738 3.29161 -0.036975 1.09433 3.29227 -0.106531 1.08976 3.28997 -0.272822 1.06042 3.28841 -0.101935 1.0902 -8.82023 11.9799 -3.03324 -8.90338 24.5434 -0.171449 -0.0 0.0 -0.0 -2.6134 13.9097 -2.62921 4.27076 -18.761 68.3967 2.92395 -55.368 1.53431 -25.3247 -1.54215 2.82044 -2.61981 0.701681 -17.4427 -0.0 0.0 -0.0 5.93222 13.881 -10.9114 -31.2608 28.4367 -64.6817 1.02047 26.8165 -0.243271 -19.6983 1.09352 -2.25658 3.92611 -30.7886 -35.1546 0.0 0.0 0.0 -1.62144 1.74875 12.3367 -29.6073 0.0589064 4.49301 36.7041 27.2308 -4.91135 5.28798 -0.0 -0.0 -0.0 0.0 -0.0 44.3269 13.009 -4.63678 -21.3543 -0.277085 -3.24634 -19.4662 14.6962 -3.18832 -19.1827 0.0 0.0 0.0 0.0 0.0 
2730.30287678 718.866 -1485.65307217 -21.0526937311 75.9851332651 16.9765271397 3.29161 -0.036975 1.09433 3.29227 -0.106531 1.08976 3.28997 -0.272822 1.06042 3.28841 -0.101935 1.0902 -8.82023 11.9799 -3.03324 -8.90338 24.5434 -0.171449 -0.0 0.0 -0.0 -2.6134 13.9097 -2.62921 4.27076 -18.761 68.3967 2.92395 -55.368 1.53431 -25.3247 -1.54215 2.82044 -2.61981 0.701681 -17.4427 -0.0 0.0 -0.0 5.93222 13.881 -10.9114 -31.2608 28.4367 -64.6817 1.02047 26.8165 -0.243271 -19.6983 1.09352 -2.25658 3.92611 -30.7886 -35.1546 0.0 0.0 0.0 -1.62144 1.74875 12.3367 -29.6073 0.0589064 4.49301 36.7041 27.2308 -4.91135 5.28798 -0.0 -0.0 -0.0 0.0 -0.0 44.3269 13.009 -4.63678 -21.3543 -0.277085 -3.24634 -19.4662 14.6962 -3.18832 -19.1827 0.0 0.0 0.0 0.0 0.0 
2712.96828279 724.65 -1488.55054284 -16.5934606977 76.1072166116 12.6419907471 3.0389 0.00917988 1.19385 3.03969 -0.0668011 1.19202 3.03803 -0.254418 1.16647 3.03614 -0.0670174 1.192 -8.20515 11.5881 -3.26274 -8.23447 23.9395 -0.631631 -0.0 0.0 -0.0 -3.0267 14.0144 -3.28815 2.5672 -19.4654 69.1054 2.59146 -52.0735 1.26616 -24.4964 -1.47264 2.7402 -2.53125 1.26242 -16.5495 -0.0 0.0 -0.0 6.21595 14.4626 -11.4805 -29.8257 29.3318 -64.4865 1.0376 27.2023 -0.25105 -20.1015 1.1238 -2.29841 3.94919 -30.5779 -35.2967 0.0 0.0 0.0 -1.42939 2.56998 11.4858 -32.591 -0.0638644 4.93436 34.9296 28.4941 -4.7648 6.26621 -0.0 -0.0 -0.0 0.0 -0.0 43.0187 12.8099 -4.46105 -24.7347 -0.209472 -3.76059 -18.4577 15.5705 -3.04251 -18.5008 0.0 0.0 0.0 0.0 0.0 
2696.55164675 730.073 -1493.69653947 -13.9022523829 75.9509066261 9.69195804074 2.82166 0.0669174 1.35265 2.82268 -0.0192828 1.35417 2.82194 -0.238162 1.3332 2.81946 -0.0246393 1.35408 -7.80798 11.3053 -3.43433 -7.80406 23.5135 -0.954744 -0.0 0.0 -0.0 -3.31898 14.0901 -3.75344 1.26397 -19.988 69.5642 2.37793 -49.6638 1.10049 -23.9005 -1.42337 2.68188 -2.4644 1.68111 -15.8806 -0.0 0.0 -0.0 6.33073 14.9679 -11.6938 -28.9212 29.9494 -64.175 1.05085 27.4989 -0.257137 -20.388 1.1455 -2.32801 3.96603 -30.4299 -35.4012 0.0 0.0 0.0 -1.25075 3.15638 10.7528 -34.6653 -0.162707 5.23724 33.6962 29.249 -4.65422 6.95576 -0.0 -0.0 -0.0 0.0 -0.0 41.8928 12.7164 -4.25306 -26.9628 -0.148362 -4.09705 -17.7126 16.1778 -2.93289 -18.0163 0.0 0.0 0.0 0.0 0.0 
2679.05262141 725.788 -1499.48237517 -10.3795336787 75.2600906975 5.62586726783 2.59326 0.199429 1.4583 2.59444 0.106239 1.46803 2.59694 -0.138445 1.46534 2.59395 0.0946905 1.46882 -7.74848 11.18 -3.56663 -7.73664 23.3701 -1.1278 -0.0 0.0 -0.0 -3.93823 14.218 -4.74561 0.0084928 -20.3336 70.6294 2.18089 -47.2057 0.953029 -22.7344 -1.32871 2.56628 -2.35331 2.38195 -14.7728 -0.0 0.0 -0.0 6.41113 16.2243 -11.7822 -27.7054 30.6196 -63.5743 1.12269 29.0796 -0.291187 -20.6838 1.16805 -2.35846 3.97217 -30.5901 -35.4551 0.0 0.0 0.0 -0.909761 3.64415 8.52757 -35.7501 -0.218759 5.3942 32.7093 28.2285 -4.50833 7.33753 -0.0 -0.0 -0.0 0.0 -0.0 40.4513 13.559 -2.93873 -26.8179 -0.152735 -4.07524 -15.8534 16.7904 -2.63523 -17.502 0.0 0.0 0.0 0.0 0.0 
2679.36942378 725.788 -1500.94083535 -9.93027483435 74.5843745024 5.16059890613 2.59326 0.199429 1.4583 2.59444 0.106239 1.46803 2.59694 -0.138445 1.46534 2.59395 0.0946905 1.46882 -7.74848 11.18 -3.56663 -7.73664 23.3701 -1.1278 -0.0 0.0 -0.0 -3.93823 14.218 -4.74561 0.0084928 -20.3336 70.6294 2.18089 -47.2057 0.953029 -22.7344 -1.32871 2.56628 -2.35331 2.38195 -14.7728 -0.0 0.0 -0.0 6.41113 16.2243 -11.7822 -27.7054 30.6196 -63.5743 1.12269 29.0796 -0.291187 -20.6838 1.16805 -2.35846 3.97217 -30.5901 -35.4551 0.0 0.0 0.0 -0.909761 3.64415 8.52757 -35.7501 -0.218759 5.3942 32.7093 28.2285 -4.50833 7.33753 -0.0 -0.0 -0.0 0.0 -0.0 40.4513 13.559 -2.93873 -26.8179 -0.152735 -4.07524 -15.8534 16.7904 -2.63523 -17.502 0.0 0.0 0.0 0.0 0.0 
2670.66909205 736.58 -1501.25662109 -9.46542909482 73.6833034124 4.15886323796 2.40125 0.296145 1.56758 2.4026 0.195808 1.58324 2.40785 -0.0744351 1.59356 2.40435 0.178141 1.58533 -7.89723 10.7919 -4.19414 -7.87608 23.0924 -1.80918 -0.0 0.0 -0.0 -4.38233 14.0405 -5.51911 -1.29462 -20.7283 71.6597 1.88441 -43.0252 0.742825 -21.1621 -1.20486 2.40744 -1.97576 3.24689 -11.7849 -0.0 0.0 -0.0 5.8817 17.282 -10.5635 -26.6268 30.5007 -63.1141 1.34488 33.6704 -0.406961 -21.0243 1.19421 -2.39336 3.85918 -30.612 -34.6866 0.0 0.0 0.0 0.35824 5.16222 7.44311 -34.5371 -0.156282 5.21863 27.1208 27.4458 -3.82543 7.7276 -0.0 -0.0 -0.0 0.0 -0.0 39.2313 13.4879 -3.14595 -26.7242 -0.155532 -4.06113 -12.9834 16.0289 -2.13911 -17.1156 0.0 0.0 0.0 0.0 0.0 
2657.92134884 744.757 -1511.30925498 -8.42468305134 71.8456952613 3.58877247838 2.13376 0.330729 1.60598 2.13517 0.22788 1.62377 2.14158 -0.0572755 1.63867 2.13789 0.202206 1.62716 -7.88734 10.4918 -4.46559 -7.85568 22.723 -2.14993 -0.0 0.0 -0.0 -4.626 13.9075 -5.95482 -2.04513 -21.0174 72.4533 1.55598 -37.6219 0.530061 -19.3094 -1.0646 2.21603 -1.47134 5.50394 -7.36012 -0.0 0.0 -0.0 5.80671 17.6141 -10.3762 -24.893 31.1105 -63.3166 1.56826 37.8399 -0.537574 -21.7439 1.25017 -2.4666 3.60244 -30.181 -32.9267 0.0 0.0 0.0 1.44255 6.90735 7.81598 -34.1326 -0.136277 5.1598 20.5965 27.5176 -2.99224 9.20354 -0.0 -0.0 -0.0 0.0 -0.0 38.2699 13.2419 -5.05325 -25.955 -0.177626 -3.94515 -13.1451 16.3932 -2.17255 -15.3639 0.0 0.0 0.0 0.0 0.0 
2658.78251716 744.757 -1514.44899111 -7.89793155335 70.5968771794 3.03243842692 2.13376 0.330729 1.60598 2.13517 0.22788 1.62377 2.14158 -0.0572755 1.63867 2.13789 0.202206 1.62716 -7.88734 10.4918 -4.46559 -7.85568 22.723 -2.14993 -0.0 0.0 -0.0 -4.626 13.9075 -5.95482 -2.04513 -21.0174 72.4533 1.55598 -37.6219 0.530061 -19.3094 -1.0646 2.21603 -1.47134 5.50394 -7.36012 -0.0 0.0 -0.0 5.80671 17.6141 -10.3762 -24.893 31.1105 -63.3166 1.56826 37.8399 -0.537574 -21.7439 1.25017 -2.4666 3.60244 -30.181 -32.9267 0.0 0.0 0.0 1.44255 6.90735 7.81598 -34.1326 -0.136277 5.1598 20.5965 27.5176 -2.99224 9.20354 -0.0 -0.0 -0.0 0.0 -0.0 38.2699 13.2419 -5.05325 -25.955 -0.177626 -3.94515 -13.1451 16.3932 -2.17255 -15.3639 0.0 0.0 0.0 0.0 0.0 
2648.93361476 746.126 -1520.65107624 -5.21697690842 67.311188089 0.91410179207 2.04581 0.501475 1.67943 2.0473 0.393608 1.70792 2.05909 0.088892 1.75042 2.055 0.364182 1.71444 -7.34887 10.3249 -4.55707 -7.2804 22.465 -2.39237 -0.0 0.0 -0.0 -4.76916 13.993 -6.17294 -2.86493 -20.9459 73.0069 1.3058 -32.8954 0.385513 -18.0118 -0.970106 2.07936 -1.09034 7.40991 -3.9985 -0.0 0.0 -0.0 5.92289 18.2312 -10.5789 -22.4499 31.5061 -63.2563 1.72957 40.5857 -0.639582 -22.2514 1.2902 -2.51784 3.39083 -29.7156 -31.4815 0.0 0.0 0.0 2.50007 7.82942 7.93897 -34.6057 -0.159713 5.22859 16.0245 27.5483 -2.37015 10.1327 -0.0 -0.0 -0.0 0.0 -0.0 36.5381 13.2751 -5.95386 -25.6916 -0.184832 -3.90537 -13.3139 16.6468 -2.20545 -14.1338 0.0 0.0 0.0 0.0 0.0 
2640.0952259 758.783 -1524.20756781 -4.11383494836 64.5186533323 -0.914601407149 1.99891 0.593132 2.03531 2.00109 0.462447 2.0689 2.0179 0.0920656 2.11794 2.01189 0.425326 2.07685 -7.47249 10.1994 -4.14836 -7.42374 21.9445 -1.98326 -0.0 0.0 -0.0 -4.82542 14.9179 -6.04348 -3.39663 -20.7457 73.415 1.14541 -29.5697 0.302315 -17.1042 -0.905867 1.98252 -0.883107 9.0381 -1.93674 -0.0 0.0 -0.0 6.18651 18.6419 -11.1171 -20.319 31.8234 -63.2744 1.85384 42.5583 -0.72206 -22.6139 1.31906 -2.55422 3.2007 -28.8267 -30.1244 0.0 0.0 0.0 3.01123 8.91678 6.58 -35.0825 -0.183913 5.29773 12.6145 27.7871 -1.89091 10.427 -0.0 -0.0 -0.0 0.0 -0.0 35.2928 14.4024 -4.86483 -25.5643 -0.188251 -3.88612 -13.758 16.9066 -2.28498 -12.9344 0.0 0.0 0.0 0.0 0.0 
